<svg id="svg" version="1.1" xmlns="http://www.w3.org/2000/svg" xmlns:xlink="http://www.w3.org/1999/xlink" width="400" height="333.3842627960275" viewBox="0, 0, 400,333.3842627960275"><g id="svgg"><path id="path0" d="M287.853 1.529 C 282.805 3.282,281.663 3.696,280.519 4.187 C 279.931 4.439,279.175 4.753,278.839 4.885 C 275.911 6.029,273.640 6.967,271.963 7.725 C 270.871 8.220,269.358 8.901,268.602 9.239 C 265.963 10.419,262.913 11.870,257.907 14.326 C 252.528 16.964,250.158 18.210,242.628 22.354 C 242.040 22.678,241.008 23.272,240.336 23.674 C 239.664 24.075,238.701 24.620,238.197 24.883 C 237.693 25.146,236.868 25.635,236.364 25.969 C 235.859 26.303,235.172 26.718,234.836 26.891 C 234.500 27.064,233.812 27.476,233.308 27.807 C 232.804 28.139,232.116 28.551,231.780 28.724 C 230.433 29.416,228.365 30.674,227.446 31.360 C 226.911 31.759,226.377 32.086,226.260 32.086 C 226.143 32.086,225.377 32.567,224.558 33.155 C 223.740 33.743,222.932 34.225,222.765 34.225 C 222.597 34.225,222.460 34.362,222.460 34.530 C 222.460 34.698,222.319 34.836,222.147 34.836 C 221.846 34.836,212.688 40.839,212.376 41.241 C 212.292 41.349,211.704 41.754,211.069 42.139 C 210.434 42.525,209.747 43.002,209.541 43.199 C 209.336 43.396,208.479 43.994,207.638 44.528 C 206.797 45.061,205.832 45.746,205.494 46.049 C 205.156 46.352,204.125 47.113,203.203 47.739 C 202.282 48.364,201.163 49.189,200.716 49.572 C 200.269 49.954,199.596 50.474,199.220 50.726 C 192.270 55.383,174.118 70.743,162.885 81.471 C 161.282 83.003,159.363 84.790,158.623 85.443 C 154.037 89.486,135.262 109.871,129.412 117.158 C 128.908 117.786,127.914 118.944,127.203 119.730 C 126.492 120.517,125.908 121.259,125.904 121.378 C 125.901 121.498,125.641 121.842,125.327 122.142 C 124.896 122.555,119.030 129.975,117.406 132.162 C 117.281 132.330,116.875 132.860,116.503 133.341 C 115.945 134.061,115.888 134.327,116.174 134.862 C 116.533 135.533,127.831 150.780,128.451 151.430 C 128.643 151.632,129.007 152.101,129.259 152.474 C 129.676 153.089,130.305 153.905,131.058 154.808 C 131.377 155.189,130.892 155.663,129.243 156.586 C 128.012 157.274,120.011 162.576,119.786 162.852 C 119.702 162.955,119.224 163.300,118.725 163.619 C 118.225 163.938,117.675 164.307,117.502 164.440 C 117.330 164.573,115.676 165.807,113.827 167.182 C 110.547 169.621,110.223 169.876,108.920 171.051 C 108.573 171.363,108.009 171.816,107.665 172.058 C 103.919 174.694,93.222 184.750,87.694 190.833 C 81.994 197.104,74.866 205.986,74.866 206.818 C 74.866 206.990,74.757 207.176,74.623 207.232 C 74.489 207.288,73.668 208.365,72.800 209.626 C 71.189 211.964,68.824 215.007,66.525 217.701 C 64.466 220.113,55.654 228.837,52.924 231.166 C 50.414 233.307,50.025 233.975,50.879 234.683 C 51.131 234.892,51.337 235.222,51.337 235.415 C 51.337 235.608,51.784 236.451,52.330 237.287 C 52.876 238.124,53.496 239.152,53.708 239.572 C 53.920 239.992,54.363 240.749,54.692 241.253 C 55.021 241.757,55.502 242.582,55.761 243.086 C 56.696 244.909,58.248 247.522,58.608 247.882 C 58.811 248.085,58.976 248.398,58.976 248.578 C 58.976 248.759,59.423 249.591,59.969 250.427 C 60.516 251.264,61.136 252.292,61.348 252.712 C 61.560 253.132,62.002 253.888,62.331 254.393 C 62.660 254.897,63.141 255.722,63.400 256.226 C 64.336 258.048,65.887 260.662,66.248 261.022 C 66.450 261.225,66.616 261.538,66.616 261.718 C 66.616 261.899,67.063 262.730,67.609 263.567 C 68.155 264.403,68.775 265.432,68.987 265.852 C 69.199 266.272,69.642 267.028,69.971 267.532 C 70.300 268.037,70.781 268.862,71.039 269.366 C 71.975 271.188,73.527 273.802,73.887 274.162 C 74.089 274.364,74.255 274.678,74.255 274.858 C 74.255 275.038,74.702 275.870,75.248 276.707 C 75.794 277.543,76.415 278.571,76.627 278.992 C 76.838 279.412,77.281 280.168,77.610 280.672 C 77.939 281.176,78.420 282.002,78.679 282.506 C 79.614 284.328,81.166 286.942,81.526 287.302 C 81.729 287.504,81.895 287.817,81.895 287.998 C 81.895 288.178,82.341 289.010,82.888 289.847 C 83.434 290.683,84.054 291.711,84.266 292.131 C 84.478 292.552,84.920 293.308,85.249 293.812 C 85.578 294.316,86.059 295.141,86.318 295.646 C 87.254 297.468,88.806 300.081,89.166 300.442 C 89.368 300.644,89.534 300.980,89.534 301.189 C 89.534 301.968,90.146 301.882,92.143 300.823 C 100.814 296.223,119.381 289.948,130.176 287.969 C 130.596 287.892,131.169 287.760,131.450 287.676 C 131.731 287.591,132.212 287.471,132.520 287.409 C 132.827 287.347,134.454 287.013,136.134 286.668 C 137.815 286.323,139.740 285.959,140.413 285.859 C 141.085 285.760,141.841 285.623,142.093 285.555 C 142.345 285.486,142.964 285.363,143.468 285.280 C 143.972 285.198,144.832 285.055,145.378 284.964 C 145.924 284.872,146.818 284.723,147.364 284.631 C 149.348 284.299,149.920 284.208,151.872 283.915 C 152.964 283.751,154.545 283.534,155.386 283.432 C 156.226 283.330,157.120 283.193,157.372 283.127 C 157.624 283.062,158.916 282.918,160.243 282.807 C 161.570 282.697,162.882 282.563,163.160 282.509 C 163.921 282.363,171.154 281.787,174.790 281.583 C 176.555 281.484,178.273 281.348,178.610 281.281 C 178.946 281.214,179.908 281.085,180.749 280.994 C 181.589 280.904,182.620 280.759,183.040 280.672 C 183.461 280.584,184.217 280.441,184.721 280.353 C 186.214 280.091,191.114 278.727,192.396 278.216 C 194.545 277.358,194.776 277.253,198.159 275.594 C 207.014 271.253,215.661 263.828,223.682 253.679 C 224.102 253.148,226.793 250.341,229.661 247.441 C 236.640 240.386,243.709 231.940,245.422 228.611 C 245.649 228.169,245.923 227.739,246.030 227.655 C 246.496 227.289,250.615 219.338,251.492 217.112 C 251.625 216.776,251.936 216.020,252.184 215.432 C 253.310 212.760,255.255 206.034,255.939 202.445 C 256.067 201.772,256.207 201.085,256.251 200.917 C 256.294 200.749,256.419 200.061,256.527 199.389 C 256.636 198.717,256.841 197.685,256.982 197.097 C 257.124 196.509,257.345 195.340,257.474 194.500 C 257.603 193.659,257.736 192.869,257.769 192.743 C 257.803 192.617,257.848 192.248,257.869 191.924 C 257.909 191.299,258.318 190.815,259.435 190.069 C 259.812 189.817,260.276 189.472,260.465 189.303 C 260.655 189.134,261.566 188.481,262.490 187.852 C 263.415 187.223,264.571 186.364,265.059 185.944 C 265.547 185.524,266.029 185.179,266.129 185.179 C 266.228 185.179,266.710 184.835,267.198 184.415 C 267.686 183.995,268.176 183.652,268.286 183.652 C 268.397 183.652,268.753 183.407,269.079 183.107 C 269.405 182.808,270.191 182.244,270.826 181.855 C 271.460 181.466,272.148 180.986,272.353 180.790 C 272.559 180.594,273.586 179.885,274.634 179.216 C 275.683 178.546,276.543 177.895,276.544 177.769 C 276.546 177.643,276.753 177.540,277.005 177.540 C 277.257 177.540,277.464 177.403,277.464 177.235 C 277.464 177.066,277.584 176.929,277.731 176.929 C 277.981 176.929,283.896 173.052,284.708 172.356 C 284.911 172.182,285.221 172.040,285.396 172.040 C 285.571 172.040,285.714 171.902,285.714 171.734 C 285.714 171.566,285.867 171.429,286.054 171.429 C 286.240 171.429,287.278 170.810,288.360 170.053 C 289.442 169.297,290.392 168.678,290.472 168.678 C 290.629 168.678,293.105 167.103,293.354 166.845 C 293.438 166.758,294.022 166.416,294.652 166.085 C 295.283 165.754,295.798 165.377,295.798 165.248 C 295.798 165.118,295.931 165.011,296.093 165.011 C 296.349 165.011,299.391 163.203,301.866 161.578 C 302.310 161.287,302.949 160.908,303.285 160.736 C 304.736 159.994,307.294 158.502,307.716 158.152 C 307.968 157.942,308.380 157.678,308.633 157.565 C 308.885 157.452,309.641 157.028,310.313 156.623 C 310.985 156.218,311.948 155.669,312.452 155.405 C 312.956 155.140,313.919 154.592,314.591 154.187 C 315.264 153.782,316.364 153.164,317.036 152.813 C 317.708 152.462,318.946 151.773,319.786 151.281 C 320.626 150.790,322.002 150.039,322.842 149.613 C 323.682 149.186,325.607 148.155,327.120 147.321 C 330.085 145.686,349.178 136.109,352.941 134.369 C 354.202 133.786,356.127 132.894,357.219 132.386 C 358.312 131.879,360.237 131.018,361.497 130.474 C 362.758 129.929,364.683 129.082,365.775 128.591 C 366.868 128.100,368.243 127.488,368.831 127.230 C 369.419 126.972,370.290 126.567,370.766 126.329 C 371.242 126.092,371.753 125.898,371.903 125.898 C 372.053 125.898,372.901 125.565,373.788 125.158 C 374.675 124.751,377.532 123.576,380.138 122.546 C 382.743 121.517,385.149 120.550,385.485 120.398 C 386.349 120.008,395.841 116.610,397.861 115.967 C 400.072 115.264,400.106 115.216,399.377 113.811 C 398.208 111.556,396.765 109.095,396.396 108.726 C 396.193 108.523,396.028 108.210,396.028 108.030 C 396.028 107.849,395.546 106.971,394.958 106.078 C 394.370 105.185,393.888 104.360,393.888 104.244 C 393.888 104.129,393.442 103.351,392.895 102.514 C 392.349 101.678,391.727 100.649,391.514 100.229 C 390.671 98.571,389.105 95.935,388.756 95.586 C 388.554 95.383,388.388 95.070,388.388 94.890 C 388.388 94.710,387.907 93.831,387.319 92.938 C 386.730 92.045,386.249 91.220,386.249 91.105 C 386.249 90.989,385.802 90.211,385.256 89.374 C 384.710 88.538,384.088 87.510,383.874 87.089 C 383.031 85.431,381.466 82.795,381.117 82.446 C 380.914 82.244,380.749 81.930,380.749 81.750 C 380.749 81.570,380.302 80.738,379.756 79.901 C 379.209 79.065,378.589 78.037,378.377 77.617 C 378.165 77.196,377.723 76.440,377.394 75.936 C 377.065 75.432,376.584 74.607,376.325 74.102 C 375.389 72.280,373.838 69.667,373.477 69.306 C 373.275 69.104,373.109 68.791,373.109 68.610 C 373.109 68.430,372.662 67.598,372.116 66.762 C 371.570 65.925,370.950 64.897,370.738 64.477 C 370.526 64.057,370.083 63.300,369.754 62.796 C 369.425 62.292,368.944 61.467,368.686 60.963 C 367.750 59.140,366.198 56.527,365.838 56.167 C 365.636 55.964,365.470 55.651,365.470 55.470 C 365.470 55.290,365.023 54.458,364.477 53.622 C 363.930 52.785,363.310 51.757,363.098 51.337 C 362.886 50.917,362.444 50.160,362.115 49.656 C 361.786 49.152,361.305 48.327,361.046 47.823 C 360.111 46.000,358.559 43.387,358.199 43.027 C 357.996 42.824,357.830 42.511,357.830 42.331 C 357.830 42.150,357.383 41.318,356.837 40.482 C 356.291 39.645,355.671 38.617,355.459 38.197 C 355.247 37.777,354.805 37.021,354.476 36.516 C 354.147 36.012,353.666 35.187,353.407 34.683 C 352.685 33.277,350.995 30.382,350.620 29.910 C 350.436 29.678,350.204 29.258,350.104 28.977 C 350.004 28.695,349.541 27.870,349.075 27.143 C 348.193 25.767,347.555 24.666,346.681 23.013 L 346.166 22.037 344.435 22.967 C 343.483 23.479,342.498 24.063,342.246 24.265 C 341.994 24.468,341.444 24.799,341.024 25.001 C 340.604 25.204,339.847 25.639,339.343 25.968 C 338.839 26.297,338.014 26.778,337.510 27.036 C 335.687 27.972,333.074 29.524,332.713 29.884 C 332.511 30.086,332.198 30.252,332.017 30.252 C 331.837 30.252,330.959 30.733,330.066 31.322 C 329.172 31.910,328.343 32.391,328.222 32.391 C 328.101 32.391,327.571 32.709,327.044 33.098 L 326.086 33.805 327.061 34.939 C 327.598 35.563,328.312 36.425,328.648 36.855 C 328.984 37.285,329.500 37.934,329.794 38.299 C 330.088 38.663,331.871 40.955,333.756 43.392 C 335.641 45.829,337.325 47.978,337.499 48.167 C 337.673 48.357,338.021 48.819,338.273 49.195 C 338.899 50.128,340.775 52.633,341.165 53.057 C 341.339 53.246,341.688 53.712,341.940 54.093 C 342.812 55.407,346.664 60.658,347.051 61.061 C 347.266 61.283,347.441 61.566,347.441 61.691 C 347.441 61.815,347.688 62.183,347.991 62.509 C 348.293 62.835,348.804 63.549,349.126 64.095 C 349.448 64.641,349.819 65.088,349.951 65.088 C 350.083 65.088,350.191 65.235,350.191 65.414 C 350.191 65.769,351.730 67.928,352.101 68.093 C 352.227 68.149,352.330 68.310,352.330 68.450 C 352.330 68.781,355.742 73.765,356.060 73.899 C 356.194 73.955,356.303 74.195,356.303 74.433 C 356.303 74.672,356.440 74.866,356.608 74.866 C 356.776 74.866,356.914 75.073,356.914 75.325 C 356.914 75.577,357.051 75.783,357.219 75.783 C 357.387 75.783,357.525 75.989,357.525 76.241 C 357.525 76.494,357.662 76.700,357.830 76.700 C 357.998 76.700,358.136 76.906,358.136 77.158 C 358.136 77.410,358.273 77.617,358.442 77.617 C 358.610 77.617,358.747 77.823,358.747 78.075 C 358.747 78.327,358.885 78.533,359.053 78.533 C 359.221 78.533,359.358 78.684,359.358 78.868 C 359.358 79.052,360.115 80.301,361.039 81.643 C 361.963 82.984,362.720 84.158,362.720 84.251 C 362.720 84.343,363.201 85.089,363.789 85.908 C 364.377 86.726,364.859 87.486,364.859 87.596 C 364.859 87.706,365.191 88.231,365.597 88.763 C 367.024 90.635,366.923 90.768,362.567 92.753 C 361.558 93.212,359.908 93.965,358.900 94.426 C 356.226 95.647,336.404 105.520,333.537 107.058 C 332.193 107.780,330.267 108.823,329.259 109.376 C 328.251 109.930,326.944 110.647,326.356 110.970 C 325.768 111.292,324.736 111.873,324.064 112.261 C 323.392 112.649,322.017 113.419,321.008 113.974 C 320.000 114.529,318.958 115.170,318.693 115.398 C 318.427 115.627,318.080 115.814,317.922 115.814 C 317.763 115.814,316.939 116.271,316.091 116.829 C 315.243 117.388,314.352 117.939,314.112 118.055 C 313.871 118.170,313.262 118.537,312.758 118.869 C 312.254 119.202,311.635 119.569,311.383 119.686 C 310.412 120.137,307.864 121.760,307.767 121.989 C 307.711 122.122,307.535 122.231,307.377 122.231 C 307.007 122.231,303.012 124.731,302.878 125.047 C 302.821 125.179,302.632 125.286,302.456 125.286 C 302.280 125.286,301.466 125.768,300.647 126.356 C 299.828 126.944,299.021 127.426,298.853 127.426 C 298.686 127.426,298.549 127.563,298.549 127.731 C 298.549 127.899,298.407 128.037,298.235 128.037 C 297.845 128.037,289.572 133.540,289.432 133.892 C 289.376 134.033,289.205 134.148,289.051 134.148 C 288.824 134.148,286.656 135.588,285.256 136.668 C 285.088 136.798,283.678 137.792,282.122 138.877 C 280.567 139.962,279.123 140.989,278.914 141.159 C 278.704 141.329,276.608 142.890,274.255 144.627 C 271.902 146.364,269.767 147.983,269.510 148.224 C 269.254 148.466,268.566 148.995,267.983 149.400 C 267.399 149.805,266.715 150.321,266.463 150.545 C 266.211 150.770,264.079 152.488,261.727 154.363 C 259.374 156.238,257.173 158.016,256.837 158.314 C 256.501 158.612,255.195 159.716,253.934 160.769 C 252.674 161.821,251.230 163.054,250.726 163.510 C 250.222 163.965,247.898 166.031,245.563 168.100 C 243.228 170.169,239.673 173.449,237.663 175.388 C 235.653 177.328,233.823 179.022,233.596 179.152 C 231.432 180.391,214.103 199.680,206.630 209.167 C 202.565 214.328,202.612 214.200,203.704 217.055 L 204.504 219.151 203.322 220.365 C 202.031 221.691,199.344 223.084,196.944 223.672 C 195.369 224.057,195.048 224.120,192.972 224.447 C 191.530 224.674,182.188 224.692,181.156 224.470 C 180.764 224.385,179.824 224.247,179.068 224.162 C 175.589 223.773,174.401 223.586,171.007 222.894 C 169.010 222.487,167.287 222.154,167.178 222.154 C 167.068 222.154,166.812 221.776,166.609 221.314 C 166.065 220.080,164.278 217.020,163.852 216.594 C 163.649 216.392,163.484 216.079,163.484 215.898 C 163.484 215.718,163.002 214.840,162.414 213.946 C 161.826 213.053,161.345 212.228,161.345 212.113 C 161.345 211.998,160.898 211.219,160.351 210.383 C 159.805 209.546,159.183 208.518,158.970 208.098 C 158.127 206.440,156.561 203.803,156.212 203.455 C 156.010 203.252,155.844 202.939,155.844 202.759 C 155.844 202.578,155.363 201.700,154.775 200.807 C 154.186 199.914,153.705 199.076,153.705 198.945 C 153.705 198.814,153.421 198.346,153.073 197.904 L 152.441 197.101 155.116 194.034 C 157.234 191.607,157.866 191.050,158.151 191.359 C 158.349 191.574,160.002 193.743,161.824 196.180 C 163.646 198.617,165.249 200.749,165.386 200.917 C 166.319 202.065,166.749 202.623,167.150 203.209 C 167.403 203.576,167.815 204.126,168.067 204.431 C 168.319 204.736,168.732 205.285,168.984 205.651 C 171.017 208.607,179.417 219.710,179.620 219.710 C 179.762 219.710,180.709 218.850,181.725 217.800 C 187.653 211.673,206.168 194.272,219.989 181.839 C 224.044 178.191,224.864 177.463,228.113 174.622 C 229.794 173.153,231.994 171.227,233.002 170.342 C 234.011 169.458,235.936 167.807,237.280 166.674 C 238.625 165.541,240.000 164.365,240.336 164.061 C 240.868 163.581,244.059 160.879,246.258 159.047 C 246.658 158.714,247.302 158.167,247.689 157.830 C 248.075 157.494,248.848 156.852,249.406 156.404 C 250.949 155.164,255.841 151.171,256.532 150.588 C 257.043 150.157,263.192 145.236,264.171 144.475 C 266.391 142.748,268.174 141.318,268.296 141.163 C 268.380 141.058,268.671 140.846,268.942 140.692 C 269.213 140.538,269.901 140.035,270.470 139.574 C 271.039 139.113,272.536 137.948,273.797 136.984 C 275.057 136.021,276.226 135.124,276.394 134.991 C 276.562 134.858,277.662 134.036,278.839 133.164 C 280.015 132.292,281.133 131.435,281.322 131.259 C 281.512 131.084,281.971 130.733,282.344 130.481 C 283.934 129.404,286.815 127.280,287.188 126.910 C 287.410 126.689,287.685 126.509,287.799 126.508 C 287.913 126.508,288.406 126.164,288.894 125.744 C 289.382 125.325,289.864 124.981,289.963 124.981 C 290.063 124.980,290.545 124.637,291.033 124.217 C 291.521 123.797,292.011 123.453,292.121 123.453 C 292.232 123.453,292.588 123.209,292.914 122.911 C 293.240 122.613,294.159 121.960,294.957 121.459 C 295.755 120.959,296.409 120.447,296.409 120.321 C 296.409 120.195,296.540 120.092,296.700 120.092 C 297.050 120.092,301.103 117.309,301.248 116.969 C 301.304 116.838,301.544 116.730,301.783 116.730 C 302.021 116.730,302.215 116.593,302.215 116.425 C 302.215 116.257,302.422 116.119,302.674 116.119 C 302.926 116.119,303.132 115.982,303.132 115.814 C 303.132 115.646,303.338 115.508,303.591 115.508 C 303.843 115.508,304.049 115.371,304.049 115.202 C 304.049 115.034,304.255 114.897,304.507 114.897 C 304.759 114.897,304.966 114.759,304.966 114.591 C 304.966 114.423,305.172 114.286,305.424 114.286 C 305.676 114.286,305.882 114.148,305.882 113.980 C 305.882 113.812,306.089 113.675,306.341 113.675 C 306.593 113.675,306.799 113.537,306.799 113.369 C 306.799 113.201,306.938 113.063,307.108 113.063 C 307.474 113.063,311.795 110.264,311.943 109.931 C 311.999 109.805,312.192 109.702,312.372 109.702 C 312.553 109.702,313.151 109.358,313.702 108.938 C 314.253 108.518,314.794 108.174,314.906 108.174 C 315.017 108.174,315.540 107.865,316.068 107.487 C 316.595 107.108,317.315 106.648,317.667 106.462 C 318.018 106.277,319.645 105.315,321.281 104.323 C 325.293 101.892,326.347 101.272,327.426 100.709 C 327.930 100.445,328.961 99.871,329.717 99.433 C 335.204 96.258,347.918 89.985,352.254 88.315 C 353.446 87.855,353.455 87.791,352.482 86.660 C 352.062 86.172,351.719 85.690,351.718 85.590 C 351.718 85.490,351.375 85.009,350.955 84.521 C 350.535 84.033,350.191 83.551,350.191 83.451 C 350.190 83.351,349.847 82.870,349.427 82.382 C 349.007 81.893,348.663 81.412,348.663 81.312 C 348.663 81.212,348.319 80.731,347.899 80.243 C 347.479 79.754,347.135 79.273,347.135 79.173 C 347.135 79.073,346.791 78.592,346.371 78.104 C 345.951 77.615,345.607 77.134,345.607 77.034 C 345.607 76.934,345.263 76.453,344.843 75.965 C 344.423 75.476,344.079 74.995,344.079 74.895 C 344.079 74.795,343.735 74.314,343.315 73.826 C 342.895 73.337,342.551 72.856,342.551 72.756 C 342.551 72.656,342.207 72.175,341.787 71.687 C 341.367 71.198,341.024 70.717,341.023 70.617 C 341.023 70.517,340.679 70.036,340.259 69.548 C 339.839 69.059,339.496 68.570,339.496 68.459 C 339.496 68.349,339.254 67.992,338.959 67.666 C 338.663 67.341,338.159 66.665,337.837 66.165 C 337.516 65.665,337.140 65.115,337.001 64.943 C 336.863 64.771,334.659 61.673,332.104 58.060 C 329.549 54.446,327.280 51.308,327.060 51.086 C 326.841 50.864,326.661 50.589,326.661 50.475 C 326.661 50.361,326.317 49.868,325.897 49.380 C 325.477 48.891,325.134 48.401,325.134 48.291 C 325.134 48.181,324.892 47.824,324.596 47.498 C 324.301 47.173,323.796 46.497,323.475 45.997 C 323.154 45.497,322.776 44.947,322.635 44.775 C 322.494 44.603,321.322 42.949,320.030 41.100 C 318.739 39.251,317.502 37.557,317.283 37.335 C 317.063 37.113,316.883 36.829,316.883 36.705 C 316.883 36.581,316.641 36.212,316.346 35.886 C 316.050 35.561,315.546 34.885,315.225 34.385 C 314.903 33.885,314.525 33.335,314.384 33.163 C 314.243 32.991,313.071 31.337,311.780 29.488 C 310.488 27.639,309.252 25.945,309.032 25.723 C 308.812 25.501,308.633 25.217,308.633 25.093 C 308.633 24.969,308.392 24.597,308.098 24.268 C 307.804 23.938,306.909 22.694,306.109 21.504 C 305.309 20.313,304.381 19.023,304.046 18.637 C 303.712 18.251,303.438 17.845,303.438 17.734 C 303.438 17.624,303.197 17.263,302.903 16.934 C 302.609 16.604,301.690 15.326,300.861 14.092 C 300.032 12.859,299.200 11.693,299.011 11.502 C 298.822 11.310,298.404 10.707,298.084 10.160 C 297.763 9.614,297.392 9.167,297.260 9.167 C 297.128 9.167,297.021 9.028,297.021 8.857 C 297.021 8.582,294.111 4.359,293.655 3.972 C 293.555 3.888,293.178 3.332,292.817 2.736 C 292.455 2.141,291.912 1.375,291.610 1.034 L 291.062 0.414 287.853 1.529 M287.853 17.876 C 288.078 18.296,288.376 18.640,288.516 18.640 C 288.656 18.640,288.770 18.787,288.770 18.966 C 288.770 19.248,290.133 21.262,290.618 21.696 C 290.712 21.780,291.104 22.368,291.490 23.003 C 291.876 23.637,292.350 24.327,292.543 24.534 C 292.737 24.742,293.574 25.922,294.402 27.157 C 295.231 28.392,296.056 29.561,296.236 29.755 C 296.415 29.948,297.240 31.117,298.069 32.352 C 298.898 33.587,299.723 34.756,299.903 34.949 C 300.082 35.143,300.907 36.312,301.736 37.547 C 302.565 38.782,303.390 39.951,303.570 40.144 C 303.749 40.338,304.550 41.472,305.350 42.664 C 306.150 43.857,307.078 45.148,307.413 45.534 C 307.748 45.920,308.021 46.326,308.021 46.437 C 308.021 46.547,308.262 46.908,308.556 47.237 C 308.850 47.567,309.769 48.845,310.598 50.079 C 311.427 51.312,312.260 52.478,312.449 52.669 C 312.638 52.861,313.055 53.464,313.376 54.011 C 313.697 54.557,314.067 55.004,314.199 55.004 C 314.331 55.004,314.439 55.143,314.439 55.314 C 314.439 55.595,317.366 59.835,317.811 60.199 C 317.914 60.283,318.259 60.798,318.576 61.345 C 318.894 61.891,319.262 62.338,319.394 62.338 C 319.525 62.338,319.633 62.477,319.633 62.648 C 319.633 62.916,322.514 67.108,322.990 67.532 C 323.084 67.617,323.422 68.094,323.741 68.594 C 324.060 69.094,324.436 69.644,324.577 69.816 C 324.718 69.989,325.890 71.642,327.181 73.491 C 328.473 75.340,329.709 77.034,329.929 77.256 C 330.149 77.478,330.328 77.762,330.328 77.886 C 330.328 78.011,330.569 78.385,330.863 78.717 C 331.157 79.050,332.124 80.386,333.011 81.687 L 334.624 84.051 332.601 84.959 C 331.488 85.458,330.529 85.867,330.471 85.867 C 329.828 85.867,308.442 96.555,303.285 99.453 C 302.445 99.925,301.276 100.573,300.688 100.894 C 300.099 101.214,299.068 101.807,298.396 102.212 C 297.723 102.617,296.871 103.087,296.501 103.256 C 296.131 103.425,295.237 103.945,294.514 104.411 C 292.834 105.495,292.441 105.731,290.888 106.585 C 290.186 106.971,288.837 107.791,287.892 108.407 C 286.946 109.023,285.890 109.682,285.544 109.871 C 284.110 110.657,279.748 113.524,279.654 113.743 C 279.598 113.874,279.357 113.980,279.119 113.980 C 278.881 113.980,278.686 114.118,278.686 114.286 C 278.686 114.454,278.544 114.591,278.371 114.591 C 277.982 114.591,270.627 119.483,270.486 119.836 C 270.430 119.977,270.259 120.092,270.105 120.092 C 269.878 120.092,267.711 121.531,266.310 122.612 C 266.142 122.742,264.698 123.758,263.102 124.870 C 261.505 125.982,260.130 126.984,260.046 127.098 C 259.962 127.212,259.412 127.602,258.824 127.964 C 258.235 128.327,257.341 128.970,256.837 129.394 C 255.613 130.422,255.436 130.556,254.545 131.136 C 254.125 131.409,253.485 131.890,253.122 132.203 C 252.760 132.517,252.156 132.979,251.779 133.231 C 249.727 134.607,235.557 145.803,234.383 146.977 C 234.107 147.252,233.601 147.676,233.257 147.918 C 232.913 148.160,231.959 148.931,231.136 149.632 C 230.314 150.333,228.472 151.892,227.044 153.098 C 225.615 154.303,224.309 155.452,224.141 155.651 C 223.972 155.849,223.422 156.329,222.918 156.717 C 222.011 157.415,220.326 158.915,213.769 164.859 C 205.411 172.434,187.891 189.825,182.010 196.384 L 178.687 200.089 177.273 198.024 C 176.496 196.888,175.551 195.561,175.175 195.076 C 174.798 194.591,173.704 193.094,172.744 191.749 C 171.784 190.405,170.916 189.236,170.815 189.152 C 170.715 189.068,170.339 188.518,169.981 187.930 C 169.623 187.341,169.080 186.580,168.775 186.238 C 167.943 185.306,166.234 182.755,166.234 182.446 C 166.234 182.136,171.445 177.273,174.637 174.604 C 175.814 173.621,176.931 172.676,177.121 172.504 C 177.310 172.333,177.779 171.986,178.163 171.734 C 180.945 169.907,187.774 163.463,190.069 160.499 C 190.489 159.957,191.092 159.203,191.410 158.824 C 200.011 148.562,200.137 134.312,191.662 130.266 C 187.404 128.234,178.690 129.562,169.971 133.573 C 166.526 135.157,160.703 138.058,158.442 139.316 C 157.265 139.970,155.752 140.795,155.080 141.148 C 154.408 141.501,153.308 142.126,152.636 142.537 C 151.963 142.948,151.111 143.423,150.741 143.592 C 150.371 143.762,149.477 144.282,148.754 144.748 C 147.023 145.864,146.345 146.278,145.607 146.668 C 145.271 146.846,144.584 147.262,144.079 147.594 C 143.100 148.237,141.733 148.888,141.656 148.748 C 141.594 148.634,139.883 146.299,139.579 145.913 C 139.447 145.745,138.555 144.507,137.597 143.163 C 136.640 141.818,135.774 140.649,135.674 140.565 C 135.573 140.481,135.198 139.931,134.840 139.343 C 134.482 138.755,133.939 137.994,133.634 137.652 C 133.328 137.310,132.648 136.400,132.121 135.630 L 131.163 134.230 132.885 132.294 C 136.714 127.989,156.312 108.322,163.333 101.740 C 170.290 95.217,182.105 84.655,186.096 81.391 C 188.855 79.135,191.167 77.201,191.291 77.045 C 191.375 76.939,192.063 76.381,192.819 75.805 C 193.575 75.229,194.400 74.571,194.652 74.343 C 194.905 74.115,195.956 73.264,196.989 72.453 C 198.022 71.641,199.053 70.819,199.281 70.625 C 200.347 69.715,207.754 64.045,211.457 61.302 C 213.727 59.621,215.766 58.066,215.988 57.847 C 216.210 57.628,216.485 57.448,216.599 57.448 C 216.713 57.448,217.206 57.104,217.695 56.684 C 218.183 56.264,218.673 55.921,218.783 55.921 C 218.893 55.921,219.250 55.673,219.576 55.370 C 219.901 55.068,220.615 54.557,221.161 54.235 C 221.707 53.913,222.154 53.542,222.154 53.410 C 222.154 53.278,222.292 53.170,222.459 53.170 C 222.810 53.170,225.923 51.004,226.076 50.653 C 226.132 50.525,226.361 50.420,226.585 50.420 C 226.809 50.420,227.038 50.317,227.094 50.191 C 227.150 50.065,228.778 48.930,230.710 47.670 C 232.643 46.409,234.270 45.275,234.326 45.149 C 234.382 45.023,234.623 44.920,234.861 44.920 C 235.099 44.920,235.294 44.782,235.294 44.614 C 235.294 44.446,235.450 44.309,235.640 44.309 C 235.830 44.309,236.655 43.827,237.474 43.239 C 238.293 42.651,239.029 42.170,239.111 42.170 C 239.193 42.170,240.259 41.521,241.479 40.728 C 242.699 39.936,243.980 39.133,244.326 38.944 C 245.058 38.544,249.020 36.145,250.213 35.380 C 250.663 35.091,251.444 34.644,251.948 34.385 C 252.452 34.126,253.415 33.581,254.087 33.174 C 254.759 32.766,255.722 32.221,256.226 31.962 C 256.730 31.703,258.105 30.946,259.282 30.280 C 260.458 29.615,264.859 27.358,269.060 25.266 C 278.155 20.736,279.297 20.209,284.339 18.213 C 287.630 16.910,287.351 16.937,287.853 17.876 M33.346 244.085 C 31.939 244.880,30.289 245.831,29.679 246.197 C 29.070 246.564,28.159 247.081,27.655 247.346 C 27.150 247.610,26.188 248.163,25.516 248.574 C 24.843 248.985,24.087 249.420,23.835 249.541 C 23.434 249.733,21.436 250.891,17.478 253.226 C 16.857 253.592,15.936 254.109,15.432 254.374 C 14.927 254.639,13.965 255.189,13.293 255.596 C 12.620 256.004,11.658 256.556,11.154 256.824 C 10.649 257.093,9.962 257.481,9.626 257.687 C 8.571 258.334,4.265 260.790,3.413 261.231 C -0.993 263.510,-0.817 265.721,4.486 274.659 C 4.853 275.277,5.370 276.196,5.634 276.700 C 5.899 277.204,6.452 278.167,6.863 278.839 C 7.274 279.511,7.709 280.267,7.830 280.519 C 8.021 280.920,9.180 282.918,11.515 286.876 C 11.881 287.498,12.398 288.419,12.663 288.923 C 12.927 289.427,13.478 290.390,13.885 291.062 C 14.292 291.734,14.845 292.697,15.113 293.201 C 15.381 293.705,15.770 294.393,15.976 294.729 C 16.182 295.065,16.969 296.421,17.725 297.743 C 18.480 299.064,19.398 300.646,19.765 301.257 C 20.132 301.868,20.648 302.781,20.913 303.285 C 21.178 303.789,21.731 304.752,22.142 305.424 C 22.553 306.096,22.988 306.853,23.108 307.105 C 23.300 307.505,24.459 309.504,26.793 313.461 C 27.160 314.083,27.677 315.004,27.941 315.508 C 28.206 316.012,28.756 316.975,29.164 317.647 C 29.571 318.319,30.124 319.282,30.392 319.786 C 30.660 320.290,31.048 320.978,31.255 321.314 C 31.461 321.650,32.248 323.006,33.003 324.328 C 33.759 325.650,34.680 327.231,35.049 327.842 C 35.419 328.453,35.869 329.281,36.050 329.681 C 37.455 332.788,41.200 334.220,43.627 332.576 C 44.086 332.266,44.805 331.834,45.225 331.616 C 46.461 330.977,49.670 329.128,53.124 327.065 C 53.738 326.698,54.652 326.181,55.157 325.916 C 55.661 325.652,56.623 325.102,57.296 324.694 C 57.968 324.287,58.930 323.746,59.435 323.493 C 59.939 323.239,61.245 322.480,62.338 321.804 C 63.430 321.129,64.736 320.363,65.241 320.103 C 65.745 319.842,66.707 319.296,67.380 318.888 C 68.052 318.481,69.015 317.931,69.519 317.666 C 70.023 317.401,70.948 316.876,71.574 316.499 C 72.200 316.122,73.429 315.421,74.303 314.941 C 77.237 313.332,78.212 311.942,78.088 309.543 C 78.020 308.221,77.827 307.755,76.250 305.118 C 75.848 304.446,75.303 303.484,75.038 302.979 C 74.773 302.475,74.220 301.513,73.809 300.840 C 73.398 300.168,72.953 299.410,72.818 299.155 C 72.459 298.473,69.929 294.070,69.158 292.784 C 68.791 292.173,68.274 291.261,68.010 290.756 C 67.745 290.252,67.192 289.290,66.781 288.617 C 66.370 287.945,65.935 287.189,65.814 286.937 C 65.623 286.536,64.464 284.538,62.129 280.580 C 61.763 279.958,61.246 279.037,60.981 278.533 C 60.717 278.029,60.166 277.066,59.759 276.394 C 59.352 275.722,58.799 274.759,58.531 274.255 C 58.263 273.751,57.874 273.063,57.668 272.727 C 57.462 272.391,56.675 271.035,55.919 269.713 C 55.164 268.392,54.246 266.810,53.879 266.199 C 53.512 265.588,52.996 264.675,52.731 264.171 C 52.466 263.667,51.913 262.704,51.502 262.032 C 51.091 261.360,50.656 260.604,50.536 260.351 C 50.344 259.951,49.185 257.952,46.851 253.995 C 46.484 253.373,45.967 252.452,45.703 251.948 C 45.438 251.444,44.888 250.481,44.480 249.809 C 44.073 249.137,43.520 248.174,43.252 247.670 C 40.299 242.117,38.184 241.352,33.346 244.085 " stroke="none" fill="#5c5c5c" fill-rule="evenodd"></path><path id="path1" d="" stroke="none" fill="#5c5c64" fill-rule="evenodd"></path><path id="path2" d="" stroke="none" fill="#605c5c" fill-rule="evenodd"></path><path id="path3" d="" stroke="none" fill="#605c5c" fill-rule="evenodd"></path><path id="path4" d="" stroke="none" fill="#605c5c" fill-rule="evenodd"></path></g></svg>